<?xml version="1.0" encoding="utf-8"?>
<!-- Generator: Adobe Illustrator 24.0.1, SVG Export Plug-In . SVG Version: 6.00 Build 0)  -->
<svg version="1.1" id="PRINT" xmlns="http://www.w3.org/2000/svg" xmlns:xlink="http://www.w3.org/1999/xlink" x="0px" y="0px"
	 viewBox="0 0 375 128.7" style="enable-background:new 0 0 375 128.7;" xml:space="preserve">
<style type="text/css">
	.st0{fill:#00ACB6;}
	.st1{fill:#007785;}
	.st2{enable-background:new    ;}
</style>
<title>logoFull</title>
<g id="CUSTOM-group">
	<path class="st0" d="M337.6,96.9L309,68.4c0,0-4.3-33.4,28.5-20.1l3.7,2.5c0,0,16.5-15,26.2,2.1s-21,40.8-21,40.8L337.6,96.9z"/>
	<path class="st0" d="M270.3,55.6H286c0,0-0.2,13.6-7.9,12.8S270.3,55.6,270.3,55.6z"/>
	<path class="st1" d="M368.9,46.8c8.1,8.1,8.1,21.2,0,29.3l-25.3,25.3v13.3c0.2,7.8-5.9,14.2-13.7,14.4c-7.8,0.2-14.2-5.9-14.4-13.7
		c0-0.3,0-0.5,0-0.8v-4.6c-0.2-3.6-3.3-6.3-6.9-6.1c-3.3,0.2-6,2.8-6.1,6.1v4.6c0.2,7.8-5.9,14.2-13.7,14.4
		c-7.8,0.2-14.2-5.9-14.4-13.7c0-0.3,0-0.5,0-0.8V72.3c-4.6-1.5-7.8-5.5-8.5-10.2l-0.9-7.3c-8.9-4.4-15-12.8-16.4-22.6l-1.7-12.1
		c-0.1-0.6-0.1-1.2-0.1-1.9c0-7.3,5.9-13.1,13.2-13.2h1.9V3.8c0-2.1,1.7-3.8,3.8-3.8c2.1,0,3.8,1.7,3.8,3.8v10.1
		c0,2.1-1.7,3.8-3.8,3.8c-2.1,0-3.8-1.7-3.8-3.8l0,0v-1.3h-1.9c-3.1,0-5.6,2.5-5.6,5.6c0,0.3,0,0.5,0,0.8l1.7,12.1
		c1.7,12.2,13.1,20.7,25.3,18.9c9.8-1.4,17.5-9.1,18.9-18.9L302,19c0-0.3,0-0.5,0-0.8c0-3.1-2.5-5.6-5.6-5.6h-1.9v1.3
		c0,2.1-1.7,3.8-3.8,3.8c-2.1,0-3.8-1.7-3.8-3.8l0,0V3.8c0-2.1,1.7-3.8,3.8-3.8c2.1,0,3.8,1.7,3.8,3.8V5h1.9
		c7.3,0,13.2,5.9,13.2,13.2c0,0.6,0,1.3-0.1,1.9l-1.7,12.1c-1,7.1-4.6,13.6-10,18.3c-1.9,1.7-4.1,3.1-6.4,4.3l-0.9,7.3
		c-0.6,4.7-3.9,8.7-8.5,10.2v42.4c0.2,3.6,3.3,6.3,6.9,6.1c3.3-0.2,6-2.8,6.1-6.1v-4.6c0.2-7.8,6.7-13.9,14.4-13.7
		c7.5,0.2,13.5,6.2,13.7,13.7v4.6c0.2,3.6,3.3,6.3,6.9,6.1c3.3-0.2,6-2.8,6.1-6.1v-13.3l-25.3-25.3c-7.8-8.3-7.4-21.5,0.9-29.3
		c7.9-7.4,20.1-7.5,28.1-0.3C348,38.7,360.8,38.9,368.9,46.8L368.9,46.8z M282.9,61.2l0.5-3.8c-3.4,0.6-7,0.6-10.4,0l0.5,3.8
		c0.3,2.6,2.7,4.5,5.3,4.2C280.9,65.1,282.7,63.4,282.9,61.2L282.9,61.2z M343.7,72.2c0-2.1-1.7-3.8-3.8-3.8s-3.8,1.7-3.8,3.8
		c0,2.1,1.7,3.8,3.8,3.8c0,0,0,0,0,0C342,76,343.7,74.3,343.7,72.2C343.7,72.2,343.7,72.2,343.7,72.2L343.7,72.2z M363.6,52.2
		c-5.2-5.1-13.5-5.1-18.6,0l-2.4,2.4c-1.5,1.5-3.9,1.5-5.3,0c0,0,0,0,0,0l-2.4-2.4c-5.2-5.1-13.5-5.1-18.6,0
		c-5.1,5.2-5.1,13.5,0,18.6l19.9,19.9v-7.9c-5.9-2.1-9-8.5-6.9-14.4c2.1-5.9,8.5-9,14.4-6.9s9,8.5,6.9,14.4
		c-1.1,3.2-3.7,5.8-6.9,6.9v7.9l20-19.9C368.8,65.7,368.8,57.3,363.6,52.2C363.6,52.2,363.6,52.1,363.6,52.2L363.6,52.2z"/>
</g>
<g class="st2">
	<path class="st1" d="M19.2,78.3v6H1.1v-6h3.5c3,0,4.5-1,4.5-3c0-2-1.5-3-4.5-3h-1v-6h1c7,0,10.5,3,10.5,9c0,1.1-0.1,2.1-0.4,3H19.2
		z"/>
	<path class="st1" d="M49.2,78.3v6h-1.3c-3.4,0-6-0.7-7.7-2.2v0c-1.7,1.5-3.7,2.2-5.9,2.2c-2.3,0-4.3-0.7-6-2.2
		c-1.7,1.4-4.3,2.2-7.7,2.2h-1.3v-6h1.3c3,0,4.5-1,4.5-3v-0.3c0-0.7,0.1-1.3,0.2-2c0.4-1.7,1.2-3.2,2.5-4.6c1.8-1.8,4-2.7,6.5-2.7
		c2.5,0,4.7,0.9,6.5,2.7c1.3,1.3,2.1,2.8,2.5,4.6v0c0,0.2,0.1,0.4,0.1,0.7l0,0.1v0.1c0,0.3,0,0.7,0,1v0.3c0,2,1.5,3,4.5,3H49.2z
		 M34.2,78.3c0.9,0,1.7-0.3,2.3-1c0.6-0.6,0.9-1.4,0.9-2.3c0-0.9-0.3-1.6-0.9-2.3c-0.6-0.6-1.4-1-2.3-1c-0.9,0-1.7,0.3-2.3,1
		c-0.6,0.6-1,1.4-1,2.3c0,0.9,0.3,1.7,1,2.3C32.5,78,33.3,78.3,34.2,78.3z"/>
	<path class="st1" d="M81.4,78.3v6H49v-6h20.9c0.3-0.6,0.5-1.3,0.5-2c0-1.2-0.4-2.3-1.3-3.2c-0.9-0.9-1.9-1.3-3.2-1.3
		c-1.2,0-2.3,0.4-3.1,1.3l-4.9-3.5c0.2-0.3,0.4-0.5,0.6-0.7c2-2,4.5-3.1,7.4-3.1c2.9,0,5.4,1,7.4,3.1c2,2,3.1,4.5,3.1,7.4
		c0,0.7-0.1,1.3-0.2,2H81.4z"/>
	<path class="st1" d="M102.9,68.6c1.8,1.8,2.7,4,2.7,6.5s-0.9,4.7-2.7,6.5c-1.8,1.8-4,2.7-6.5,2.7c-2.3,0-4.3-0.7-6-2.2
		c-1.7,1.4-4.3,2.2-7.7,2.2h-1.3v-6h1.3c3,0,4.5-1,4.5-3v-0.3c0-0.7,0.1-1.3,0.2-2c0.4-1.7,1.2-3.2,2.5-4.6c1.8-1.8,4-2.7,6.5-2.7
		C98.9,65.8,101,66.7,102.9,68.6z M98.6,77.4c0.6-0.6,0.9-1.4,0.9-2.3c0-0.9-0.3-1.6-0.9-2.3c-0.6-0.6-1.4-1-2.3-1
		c-0.9,0-1.7,0.3-2.3,1c-0.6,0.6-1,1.4-1,2.3c0,0.9,0.3,1.7,1,2.3c0.6,0.6,1.4,1,2.3,1C97.2,78.3,98,78,98.6,77.4z"/>
	<path class="st1" d="M131.9,78.3v6h-18.1v-6h3.5c3,0,4.5-1,4.5-3c0-2-1.5-3-4.5-3h-1v-6h1c7,0,10.5,3,10.5,9c0,1.1-0.1,2.1-0.4,3
		H131.9z"/>
	<path class="st1" d="M161.8,78.3v6h-1.3c-3.4,0-6-0.7-7.7-2.2v0c-1.7,1.5-3.7,2.2-5.9,2.2c-2.3,0-4.3-0.7-6-2.2
		c-1.7,1.4-4.3,2.2-7.7,2.2h-1.3v-6h1.3c3,0,4.5-1,4.5-3v-0.3c0-0.7,0.1-1.3,0.2-2c0.4-1.7,1.2-3.2,2.5-4.6c1.8-1.8,4-2.7,6.5-2.7
		c2.5,0,4.7,0.9,6.5,2.7c1.3,1.3,2.1,2.8,2.5,4.6v0c0,0.2,0.1,0.4,0.1,0.7l0,0.1v0.1c0,0.3,0,0.7,0,1v0.3c0,2,1.5,3,4.5,3H161.8z
		 M146.8,78.3c0.9,0,1.7-0.3,2.3-1c0.6-0.6,0.9-1.4,0.9-2.3c0-0.9-0.3-1.6-0.9-2.3c-0.6-0.6-1.4-1-2.3-1c-0.9,0-1.7,0.3-2.3,1
		c-0.6,0.6-1,1.4-1,2.3c0,0.9,0.3,1.7,1,2.3C145.2,78,145.9,78.3,146.8,78.3z"/>
	<path class="st1" d="M190.7,78.3v6h-29.2v-6h20.9c0.3-0.6,0.5-1.3,0.5-2c0-1.2-0.4-2.3-1.3-3.2c-0.9-0.9-1.9-1.3-3.2-1.3
		c-1.2,0-2.3,0.4-3.1,1.3l-4.9-3.5c0.2-0.3,0.4-0.5,0.6-0.7c2-2,4.5-3.1,7.4-3.1c2.9,0,5.4,1,7.4,3.1c2,2,3.1,4.5,3.1,7.4
		c0,0.7-0.1,1.3-0.2,2H190.7z"/>
	<path class="st1" d="M201.7,54.9v3.5h-9.9v-3.5h1.3c0-0.7,0.1-1.5,0.4-2.2c0.6-1.6,1.6-2.7,3.2-3.5c1.5-0.7,3.1-0.8,4.7-0.2
		l0.2,0.1l0.1,0.1l-1.2,3.2c-0.1,0-0.2-0.1-0.3-0.1c-0.7-0.3-1.3-0.2-2,0.1c-0.7,0.3-1.1,0.8-1.4,1.5c-0.1,0.4-0.2,0.7-0.1,1.1
		H201.7z M193.7,60.2h6v24.1h-6V60.2z"/>
	<path class="st1" d="M227.5,57.4l-13.4,26.9h-6.2l13.6-26.9H227.5z"/>
	<path class="st1" d="M232.2,84.3h-3.5v-6h3.5c3,0,4.5-1,4.5-3c0-2-1.5-3-4.5-3h-1v-6h1c7,0,10.5,3,10.5,9S239.1,84.3,232.2,84.3z"
		/>
</g>
<g class="st2">
	<path class="st0" d="M15.2,114.2c0,2-1.2,4.1-3.6,4.1c-2.4,0-3.6-2.1-3.6-4.1v-1.7c0-0.3-0.2-0.4-0.9-0.4v-0.4l2-0.1v2.6
		c0,2.9,1.3,3.7,2.5,3.7c1.3,0,2.5-0.8,2.5-3.7V109c0-0.3,0-0.4-0.5-0.5l1.6-0.3V114.2z"/>
	<path class="st0" d="M17.2,109.1c0-0.3-0.2-0.4-0.9-0.4v-0.4l2-0.1v6.4c0,0.7,0.3,1,0.8,1h0.6v0.5h-0.7c-1.1,0-1.8-0.4-1.8-1.6
		V109.1z"/>
	<path class="st0" d="M21.8,116.1h-2.2v-0.5h2c0.4,0,0.7,0,1-0.2c-1-0.7-1.8-1.6-1.8-2.8c0-1.2,1.2-2.1,2.7-2.1c1.5,0,2.6,1,2.6,2.1
		c0,1.4-1.2,2.1-2.3,2.7c0.1,0.1,0.3,0.2,0.7,0.2h3.2v0.5h-3c-0.9,0-1.3-0.2-1.5-0.3C22.8,115.9,22.4,116.1,21.8,116.1z M23.2,115.1
		c0,0,0.1-0.1,0.1-0.1c0.8-0.6,1.4-0.9,1.4-2.4c0-1-0.5-1.7-1.4-1.7c-0.9,0-1.4,0.6-1.5,1.4c0,0.1,0,0.2,0,0.3
		C21.8,113.7,22.4,114.6,23.2,115.1z M23.8,108.7c0,0.4-0.3,0.6-0.6,0.6s-0.6-0.3-0.6-0.6c0-0.4,0.3-0.6,0.6-0.6
		S23.8,108.4,23.8,108.7z"/>
	<path class="st0" d="M27.3,115.7h0.6c0.8,0,1.2-0.5,1.2-1.2v-4.7c0-0.3-0.1-0.4-0.8-0.4v-0.4l2-0.1l-0.2,4.7
		c0.9-1.8,2.1-2.6,2.8-2.6c2,0,3.2,2,3.2,5.2h-8.8V115.7z M34.9,115.7c0-2.8-0.9-4.3-1.9-4.3c-1.3,0-3,3.1-3.3,4.3H34.9z"/>
	<path class="st0" d="M37.1,108.6l0.1-0.3h0.6c-0.3-0.2-0.5-0.5-0.5-0.8c0-0.5,0.4-1,1-1c0.4,0,0.8,0.3,0.8,0.6
		c0,0.3-0.1,0.3-0.4,0.3c-0.2,0-0.4-0.1-0.4-0.3c0-0.1,0.1-0.2,0.2-0.3c0-0.1-0.2-0.1-0.2-0.1c-0.2,0-0.4,0.3-0.4,0.5
		c0,0.4,0.3,1,0.8,1h0.5v0.3H37.1z M37.2,116.1h3.2c1.1,0,1.7-0.6,1.7-1.6v-6.3l-1.6,0.3c0.5,0.2,0.5,0.3,0.5,0.5v5.5
		c0,0.7-0.3,1.2-0.9,1.2h-0.8v-6.4l-1.7,0.3c0.6,0.2,0.6,0.3,0.6,0.5v5.5h-0.7L37.2,116.1z"/>
	<path class="st0" d="M43.7,109c0-0.3,0-0.4-0.5-0.5l1.6-0.3v7.9h-1.1V109z"/>
	<path class="st0" d="M51.4,113.9H53c0.6,0,0.9-0.5,0.9-1.2v-0.2c-0.3,0.4-0.8,0.6-1.6,0.6c-0.8,0-1.9-0.8-1.9-2c0-2.2,1.5-3,3.6-3
		H55v4.5c0,0.6-0.2,1-0.6,1.3c0.6,0.2,0.9,0.4,0.9,1.1v0.1c0,0.8-0.7,0.8-0.8,0.8h-4.4c-1.1,0-1.9-0.4-1.9-1.6v-2.3
		c0-0.3-0.2-0.4-0.9-0.4v-0.4l2-0.1v3.3c0,0.7,0.3,1,0.8,1h3.6c0.3,0,0.5,0,0.5-0.5c0-0.7-0.2-0.8-0.9-0.8h-1.6L51.4,113.9z
		 M51.6,117.9c0,0.3-0.3,0.6-0.6,0.6s-0.6-0.3-0.6-0.6s0.3-0.6,0.6-0.6S51.6,117.5,51.6,117.9z M53.9,108.5h-0.1
		c-1.1,0-2.1,0.8-2.3,2.6v0c0,0.7,0.4,1.6,1.1,1.6h0c0.7,0,1.3-0.9,1.3-1.9V108.5z M53.4,117.9c0,0.3-0.3,0.6-0.6,0.6
		c-0.4,0-0.6-0.3-0.6-0.6s0.3-0.6,0.6-0.6C53.2,117.3,53.4,117.5,53.4,117.9z M53.9,106.4c0,0.4-0.3,0.6-0.6,0.6
		c-0.3,0-0.6-0.3-0.6-0.6c0-0.4,0.3-0.6,0.6-0.6C53.6,105.8,53.9,106.1,53.9,106.4z"/>
	<path class="st0" d="M64.3,116.1c-0.8,0-1.5-0.2-1.5-1.3c-0.2,0.5-0.7,1.3-1.8,1.3c-1.3,0-2.3-1.3-2.3-2.9c0-1.4,1-2.8,2.5-2.8
		c0.7,0,1.2,0.3,1.5,0.5c0.1,0.1,0.2,0.1,0.2,0.1c0,0,0.1-0.2,0.1-0.3c0,0,0-0.1,0.1-0.2h0.6c-0.1,0.3-0.1,0.6-0.1,0.9v3.2
		c0,0.3,0.1,0.9,0.6,1h1.4v0.5h-1.1H64.3z M59.8,113.3c0,1.8,0.8,2.4,1.3,2.4c0.6,0,1.1-0.5,1.3-1.1c0.1-0.4,0.1-0.8,0.1-1.5
		c0-1.1-0.1-2.2-1.4-2.2C60.2,110.8,59.8,112,59.8,113.3z M61.2,108.9c0,0.3-0.3,0.6-0.6,0.6c-0.4,0-0.6-0.3-0.6-0.6
		s0.2-0.6,0.6-0.6C60.9,108.2,61.2,108.5,61.2,108.9z M62.9,108.9c0,0.3-0.3,0.6-0.6,0.6c-0.4,0-0.6-0.3-0.6-0.6s0.3-0.6,0.6-0.6
		C62.7,108.2,62.9,108.5,62.9,108.9z"/>
	<path class="st0" d="M66.4,117.9c0,0.3-0.3,0.6-0.6,0.6c-0.4,0-0.6-0.3-0.6-0.6s0.2-0.6,0.6-0.6C66.1,117.3,66.4,117.5,66.4,117.9z
		 M69.6,116.1c-0.6,0-1.2-0.4-1.6-1c-0.3,0.7-1.1,1-1.8,1h-0.8v-0.5H66c0.7,0,0.9-0.4,0.9-1.2v-3.1c0-0.3,0-0.3-0.5-0.5l1.6-0.3v3.2
		c0,0.8,0.5,1.9,1.4,1.9h0.7v0.5H69.6z M68.2,117.9c0,0.3-0.3,0.6-0.6,0.6c-0.4,0-0.6-0.3-0.6-0.6s0.3-0.6,0.6-0.6
		C67.9,117.3,68.2,117.5,68.2,117.9z"/>
	<path class="st0" d="M69.9,115.7h0.6c0.8,0,1.2-0.5,1.2-1.2v-4.7c0-0.3-0.1-0.4-0.8-0.4v-0.4l2-0.1l-0.2,4.7
		c0.9-1.8,2.1-2.6,2.8-2.6c1.9,0,3,1.8,3.2,4.7h1.4v0.5H69.9V115.7z M77.5,115.7c0-2.8-0.9-4.3-1.9-4.3c-1.3,0-3,3.1-3.3,4.3H77.5z
		 M76.3,109.1c0,0.4-0.3,0.6-0.6,0.6c-0.3,0-0.6-0.3-0.6-0.6c0-0.4,0.3-0.6,0.6-0.6C76,108.4,76.3,108.7,76.3,109.1z"/>
	<path class="st0" d="M82.1,116.1h-2.2v-0.5h2c0.4,0,0.7,0,1-0.2c-1-0.7-1.8-1.6-1.8-2.8c0-1.2,1.2-2.1,2.7-2.1c1.5,0,2.6,1,2.6,2.1
		c0,1.4-1.2,2.1-2.3,2.7c0.1,0.1,0.3,0.2,0.7,0.2h3.2v0.5h-3c-0.9,0-1.3-0.2-1.5-0.3C83.2,115.9,82.8,116.1,82.1,116.1z M83.5,115.1
		c0,0,0.1-0.1,0.1-0.1c0.8-0.6,1.4-0.9,1.4-2.4c0-1-0.5-1.7-1.4-1.7c-0.9,0-1.4,0.6-1.5,1.4c0,0.1,0,0.2,0,0.3
		C82.1,113.7,82.7,114.6,83.5,115.1z M84.2,108.7c0,0.4-0.3,0.6-0.6,0.6c-0.3,0-0.6-0.3-0.6-0.6c0-0.4,0.3-0.6,0.6-0.6
		C83.9,108.1,84.2,108.4,84.2,108.7z"/>
	<path class="st0" d="M96.2,115.7v0.5h-8.5v-0.5h5.7c0-2.8-1-4.3-2-4.3c-1.1,0-1.8,1.1-2.2,2.4l-0.5-0.9c0.2-0.1,0.3-0.2,0.5-0.5
		c0.4-0.7,1-1.4,2.3-1.4c2,0,3.2,2.4,3.2,4.7H96.2z"/>
	<path class="st0" d="M100.5,116.1c-0.6,0-1.2-0.4-1.6-1c-0.3,0.7-1.1,1-1.8,1h-1.1v-0.5h0.9c0.6,0,0.9-0.4,0.9-1.2v-3.1
		c0-0.3,0-0.3-0.6-0.5l1.7-0.3v3.2c0,0.8,0.5,1.9,1.4,1.9h0.7v0.5H100.5z M97.8,108.7c0,0.3-0.3,0.6-0.6,0.6c-0.4,0-0.6-0.3-0.6-0.6
		c0-0.4,0.2-0.6,0.6-0.6C97.5,108,97.8,108.3,97.8,108.7z M99.6,108.7c0,0.3-0.3,0.6-0.6,0.6c-0.4,0-0.6-0.3-0.6-0.6
		c0-0.4,0.3-0.6,0.6-0.6C99.3,108,99.6,108.3,99.6,108.7z"/>
	<path class="st0" d="M100.7,115.7h0.3c0.7,0,1-0.5,1-1.2V109c0-0.3,0-0.4-0.5-0.5l1.6-0.3v6.3c0,1-0.8,1.6-1.8,1.6h-0.5V115.7z"/>
	<path class="st0" d="M104.7,109c0-0.3,0-0.4-0.5-0.5l1.6-0.3v7.9h-1.1V109z"/>
	<path class="st0" d="M116.6,113.8c1-1.7,2.3-2.9,3.1-2.9c2,0,3.2,2,3.2,5.2h-6.7c-0.5,1.2-1.6,2.1-3.2,2.1c-2.4,0-3.6-2.1-3.6-4.1
		v-1.7c0-0.3-0.2-0.4-0.9-0.4v-0.4l2-0.1v2.6c0,2.9,1.3,3.7,2.5,3.7c1.3,0,2.5-0.8,2.5-3.7v-1.8c0-0.3,0-0.4-0.5-0.6l1.6-0.3V113.8z
		 M121.6,115.7c0-2.8-0.9-4.3-2-4.3c-1.3,0-3,3.1-3.3,4.3H121.6z M119.4,108.9c0,0.4-0.3,0.6-0.6,0.6c-0.3,0-0.6-0.3-0.6-0.6
		c0-0.4,0.3-0.6,0.6-0.6C119.1,108.2,119.4,108.5,119.4,108.9z"/>
	<path class="st0" d="M125,118.3c0.9-0.2,2-0.6,2.5-2.2h-1.4c-0.8,0-1.9-0.7-1.9-1.9c0-2.2,1.5-3.6,3.6-3.6h0.9v3c0,0.8,0,1.5-0.1,2
		h1.6v0.5h-1.7c-0.5,2-1.8,2.3-2.8,2.3c-0.2,0-0.6,0-1-0.1L125,118.3z M127.7,111h-0.1c-1.1,0-2.3,1.2-2.3,3.1
		c0,0.7,0.4,1.6,1.1,1.6h1.3c0-0.1,0-0.2,0-0.4V111z"/>
	<path class="st0" d="M139,115.7c0.7,0,0.9-0.5,0.9-1.2V109c0-0.3,0-0.4-0.6-0.5l1.6-0.3v6.3c0,1-0.7,1.6-1.8,1.6h-9.1v-0.5h5.7
		c0-2.8-1-4.3-2-4.3c-1.1,0-1.8,1.1-2.2,2.4l-0.5-0.9c0.2-0.1,0.3-0.2,0.5-0.5c0.4-0.7,1-1.4,2.3-1.4c2,0,3.2,2.4,3.2,4.7H139z"/>
	<path class="st0" d="M142.6,109c0-0.3,0-0.4-0.5-0.5l1.6-0.3v7.9h-1.1V109z"/>
	<path class="st0" d="M147.6,116.1c-0.1-0.1-0.3-0.2-0.4-0.4c-0.3-0.2-0.7-0.7-0.8-0.8c0.2,0.1,0.9,0.3,1.1,0.3
		c0.9,0,1.2-0.9,1.5-1.9c0.4-1.2,0.8-2.5,2.7-2.5c1.5,0,2.3,1.5,2.3,2.7c0,1.2-0.9,2.5-2.6,2.5c-1.1,0-1.6-0.6-2-1
		C149,115.5,148.5,116.1,147.6,116.1L147.6,116.1z M151.4,111.3c-0.8,0-1,0.9-1.3,1.9c-0.1,0.4-0.2,0.9-0.5,1.4c0,0,0.1,0.1,0.1,0.1
		c0.3,0.4,0.8,1,1.6,1c0.8,0,1.5-0.9,1.5-2.1C152.8,112.4,152.4,111.3,151.4,111.3L151.4,111.3z"/>
	<path class="st0" d="M156,109.1c0-0.3-0.2-0.4-0.9-0.4v-0.4l2-0.1v6.4c0,0.7,0.3,1,0.8,1h0.6v0.5h-0.7c-1.1,0-1.8-0.4-1.8-1.6
		V109.1z"/>
	<path class="st0" d="M158.3,115.7h0.6c0.8,0,1.2-0.5,1.2-1.2v-4.7c0-0.3-0.1-0.4-0.8-0.4v-0.4l2-0.1l-0.2,4.7
		c0.9-1.8,2.1-2.6,2.8-2.6c1.9,0,3,1.8,3.2,4.7h1.4v0.5h-10.2V115.7z M165.9,115.7c0-2.8-0.9-4.3-1.9-4.3c-1.3,0-3,3.1-3.3,4.3
		H165.9z M164.7,109.1c0,0.4-0.3,0.6-0.6,0.6c-0.3,0-0.6-0.3-0.6-0.6c0-0.4,0.3-0.6,0.6-0.6C164.4,108.4,164.7,108.7,164.7,109.1z"
		/>
	<path class="st0" d="M168.3,115.7h2.2c-0.7-0.5-1.2-1.3-1.2-2.4c0-1.7,1.4-2.8,2.9-2.8c0.9,0,1.8,0.6,1.8,1.4
		c0,0.4-0.3,0.7-0.7,0.7s-0.7-0.3-0.7-0.6s0.2-0.5,0.6-0.5c0.1,0,0.2,0,0.2,0c-0.2-0.3-0.5-0.6-1.2-0.6c-1.1,0-1.7,0.8-1.7,2.3
		c0,1.4,0.5,2.5,1.8,2.5c0.5,0,0.9-0.2,1.3-0.4l0.3,0.2c-0.5,0.4-1,0.7-1.8,0.7h-3.8V115.7z"/>
	<path class="st0" d="M182.8,116.1c-0.8,0-1.5-0.2-1.5-1.3c-0.2,0.5-0.7,1.3-1.8,1.3c-1.3,0-2.3-1.3-2.3-2.9c0-1.4,1-2.8,2.5-2.8
		c0.7,0,1.2,0.3,1.5,0.5c0.1,0.1,0.2,0.1,0.2,0.1c0,0,0.1-0.2,0.1-0.3c0,0,0-0.1,0.1-0.2h0.6c-0.1,0.3-0.1,0.6-0.1,0.9v3.2
		c0,0.3,0.1,0.9,0.6,1h1.4v0.5h-1.1H182.8z M178.3,113.3c0,1.8,0.8,2.4,1.3,2.4c0.6,0,1.1-0.5,1.3-1.1c0.1-0.4,0.1-0.8,0.1-1.5
		c0-1.1-0.1-2.2-1.4-2.2C178.7,110.8,178.3,112,178.3,113.3z M179.6,108.9c0,0.3-0.3,0.6-0.6,0.6c-0.4,0-0.6-0.3-0.6-0.6
		s0.2-0.6,0.6-0.6C179.4,108.2,179.6,108.5,179.6,108.9z M181.4,108.9c0,0.3-0.3,0.6-0.6,0.6c-0.4,0-0.6-0.3-0.6-0.6
		s0.3-0.6,0.6-0.6C181.2,108.2,181.4,108.5,181.4,108.9z"/>
	<path class="st0" d="M191.3,115.7l-0.3,0.5h-7.1v-0.5h5.7c0-2.8-1-4.3-2-4.3c-1.1,0-1.8,1.1-2.2,2.4l-0.5-0.9
		c0.2-0.1,0.3-0.2,0.5-0.5c0.4-0.7,1-1.4,2.3-1.4c2,0,3.2,2.4,3.2,4.7H191.3z"/>
	<path class="st0" d="M193,109c0-0.3,0-0.4-0.5-0.5l1.6-0.3v7.9H193V109z"/>
	<path class="st0" d="M196.9,111.5c0-0.3,0-0.4-0.6-0.6l1.7-0.3v3.1c0,0.7,0,1.4-0.1,2h1.8v0.5h-1.9c-0.3,1.3-1,2.2-2.8,2.2
		c-0.2,0-0.4,0-0.9,0c1.8-0.5,2.7-1.4,2.8-3.7V111.5z"/>
	<path class="st0" d="M206.8,115.7l-0.3,0.5h-7.1v-0.5h5.7c0-2.8-1-4.3-2-4.3c-1.1,0-1.8,1.1-2.2,2.4l-0.5-0.9
		c0.2-0.1,0.3-0.2,0.5-0.5c0.4-0.7,1-1.4,2.3-1.4c2,0,3.2,2.4,3.2,4.7H206.8z M203.7,117.9c0,0.4-0.3,0.6-0.6,0.6s-0.6-0.3-0.6-0.6
		c0-0.4,0.3-0.6,0.6-0.6S203.7,117.5,203.7,117.9z"/>
	<path class="st0" d="M210.2,113.3c0-1.5,1-2.9,2.6-2.9c1.6,0,2.6,1.4,2.6,2.9c0,1.4-1,2.8-2.6,2.8
		C211.1,116.1,210.2,114.7,210.2,113.3z M214.2,113.3c0-1.6-0.4-2.4-1.4-2.4c-1,0-1.4,0.9-1.4,2.4c0,1.6,0.4,2.4,1.4,2.4
		C213.8,115.7,214.2,114.8,214.2,113.3z"/>
	<path class="st0" d="M217.1,109c0-0.3,0-0.4-0.5-0.5l1.6-0.3v7.9h-1.1V109z"/>
	<path class="st0" d="M221,111.5c0-0.3,0-0.4-0.6-0.6l1.7-0.3v3.1c0,2.2-0.2,4.7-3,4.7c-0.2,0-0.4,0-0.9,0c1.8-0.5,2.7-1.4,2.8-3.7
		V111.5z"/>
	<path class="st0" d="M224.2,118.3c0.9-0.2,2-0.6,2.5-2.2h-1.4c-0.8,0-1.9-0.7-1.9-1.9c0-2.2,1.5-3.6,3.6-3.6h0.9v3
		c0,0.8,0,1.5-0.1,2h1.6v0.5h-1.7c-0.5,2-1.8,2.3-2.8,2.3c-0.2,0-0.6,0-1-0.1L224.2,118.3z M226.9,111h-0.1c-1.1,0-2.3,1.2-2.3,3.1
		c0,0.7,0.4,1.6,1.1,1.6h1.3c0-0.1,0-0.2,0-0.4V111z"/>
	<path class="st0" d="M233.8,116.1c-0.6,0-1.2-0.4-1.6-1c-0.3,0.7-1.1,1-1.8,1h-1.1v-0.5h0.9c0.6,0,0.9-0.4,0.9-1.2v-3.1
		c0-0.3,0-0.3-0.6-0.5l1.7-0.3v3.2c0,0.8,0.5,1.9,1.4,1.9h0.7v0.5H233.8z M231.1,108.7c0,0.3-0.3,0.6-0.6,0.6
		c-0.4,0-0.6-0.3-0.6-0.6c0-0.4,0.2-0.6,0.6-0.6C230.9,108,231.1,108.3,231.1,108.7z M232.9,108.7c0,0.3-0.3,0.6-0.6,0.6
		c-0.4,0-0.6-0.3-0.6-0.6c0-0.4,0.3-0.6,0.6-0.6C232.7,108,232.9,108.3,232.9,108.7z"/>
	<path class="st0" d="M239.3,109c-0.1,0.6-1.9,1.6-3.1,2c1.4,0.2,2.6,1.3,2.6,2.5v2.1h0.1l0.3,0.5h-5.2v-0.5h3.6v-2.1
		c0-0.9-0.5-2.2-1.9-2.2h-1.1l0.3-0.4h0.3c0.8,0,3.2-1.7,3.3-3L239.3,109z"/>
	<path class="st0" d="M243.4,110.6c1.5,0,1.8,3.1,1.8,5.2v0.3h-4.4l-0.4-0.5h3.6v-1.5c0-2.1-0.2-3.1-0.8-3.1c-0.4,0-1.1,0.8-1.8,1.9
		l-0.2-1c0.3,0,0.5-0.1,1.1-0.7C242.5,110.9,242.9,110.6,243.4,110.6L243.4,110.6z"/>
</g>
</svg>
