<svg id="PRINT" xmlns="http://www.w3.org/2000/svg" viewBox="0 0 128.22 129.13"><defs><style>.cls-1{fill:#00acb6;}.cls-2{fill:#007785;}</style></defs><title>logoIcon</title><g id="CUSTOM-group"><path class="cls-1" d="M337.57,96.91,309,68.44s-4.3-33.4,28.54-20.11l3.68,2.54s16.48-15,26.19,2.15-21,40.82-21,40.82Z" transform="translate(-246.76 0)"/><path class="cls-1" d="M270.28,55.59H286s-.22,13.59-7.87,12.81S270.28,55.59,270.28,55.59Z" transform="translate(-246.76 0)"/><path class="cls-2" d="M368.92,46.81a20.75,20.75,0,0,1,0,29.31L343.64,101.4v13.29a14.06,14.06,0,0,1-28.11.75q0-.37,0-.75v-4.58a6.51,6.51,0,0,0-13,0v4.58a14.06,14.06,0,0,1-28.11.75q0-.37,0-.75V72.33A12.38,12.38,0,0,1,266,62.13l-.92-7.34A29.92,29.92,0,0,1,248.63,32.2L246.9,20.06a13,13,0,0,1-.14-1.87A13.19,13.19,0,0,1,259.93,5h1.92V3.77a3.77,3.77,0,1,1,7.54,0V13.83a3.77,3.77,0,1,1-7.54,0h0V12.58h-1.92a5.62,5.62,0,0,0-5.62,5.61,7.16,7.16,0,0,0,.05.8l1.74,12.14a22.32,22.32,0,0,0,44.19,0L302,19a7.16,7.16,0,0,0,.05-.8,5.62,5.62,0,0,0-5.62-5.61h-1.92v1.25a3.77,3.77,0,0,1-7.54,0h0V3.77a3.77,3.77,0,0,1,7.54,0V5h1.92a13.19,13.19,0,0,1,13.17,13.16,13,13,0,0,1-.14,1.87L307.77,32.2a29.89,29.89,0,0,1-10,18.33,29.31,29.31,0,0,1-6.43,4.26l-.91,7.34A12.38,12.38,0,0,1,282,72.33v42.36a6.51,6.51,0,0,0,13,0v-4.58a14.06,14.06,0,0,1,28.11,0v4.58a6.51,6.51,0,0,0,13,0V101.38L310.83,76.12a20.73,20.73,0,0,1,29-29.58,20.75,20.75,0,0,1,29,.27Zm-86,14.39.48-3.82a30,30,0,0,1-10.43,0l.48,3.82a4.77,4.77,0,0,0,9.47,0Zm60.74,11A3.77,3.77,0,1,0,339.89,76h0a3.77,3.77,0,0,0,3.76-3.78v0Zm19.94-20a13.21,13.21,0,0,0-18.65,0l-2.39,2.4a3.77,3.77,0,0,1-5.33,0h0l-2.4-2.4a13.18,13.18,0,1,0-18.64,18.65l19.93,19.92V82.89a11.31,11.31,0,1,1,7.54,0v7.89l20-19.94a13.21,13.21,0,0,0,0-18.68l0,0Z" transform="translate(-246.76 0)"/></g></svg>